# xmcd
#
# Track frame offsets:
#	150
#	15437
#	34336
#	57277
#	74557
#	118737
#	134969
#	147635
#	164830
#	227579
#	255773
#	279119
#
# Disc length: 4081 seconds
# Revision: 1
# Processed by: cddbd v1.5.2PL0 Copyright (c) Steve Scherf et al.
# Submitted via: dBpowerAMP V12.0
#
DISCID=b40fef0c
DTITLE=B.B. King and Bobby Bland - Together for the First Time...Live
DYEAR=1974
DGENRE=Blues
TTITLE0=Three O'Clock Blues
TTITLE1=It's My Own Fault
TTITLE2=Driftin' Blues
TTITLE3=That's the Way Love Is
TTITLE4=I'm Sorry
TTITLE5=I'll Take Care of You
TTITLE6=Don't Cry No More
TTITLE7=Don't Want a Soul Hangin' Around
TTITLE8=Medley - Good to Be Back Home...
TTITLE9=Everybody Wants to Know Why I Sing the Blues
TTITLE10=Goin' Down Slow
TTITLE11=I Like to Live the Love
EXTD=
EXTT0=
EXTT1=
EXTT2=
EXTT3=
EXTT4=
EXTT5=
EXTT6=
EXTT7=
EXTT8=
EXTT9=
EXTT10=
EXTT11=
PLAYORDER=
